<svg width="64" height="64" viewBox="0 0 64 64" fill="none" xmlns="http://www.w3.org/2000/svg">
<g clip-path="url(#clip0_928_2013)">
<path d="M32 64C49.6731 64 64 49.6731 64 32C64 14.3269 49.6731 0 32 0C14.3269 0 0 14.3269 0 32C0 49.6731 14.3269 64 32 64Z" fill="#02224F"/>
<path d="M19.2219 49.6926V13.459H25.242V29.2721C25.242 29.2921 25.2055 29.7475 25.2055 29.7475C26.2027 28.7502 27.6653 27.9657 28.1972 27.753C31.5214 26.4233 34.5132 26.7557 35.8428 27.0881C36.8634 27.3441 40.7792 28.1186 43.4885 32.7392C46.5068 37.8884 44.858 44.919 40.4967 48.3629C38.1565 50.2111 35.5636 50.5635 34.5132 50.6898C29.8128 51.2549 26.2659 49.0709 25.2055 48.3629V49.6926H19.2219Z" fill="#F7FAFC" stroke="#EBF3FE" stroke-width="0.671806" stroke-miterlimit="10"/>
<path d="M33.3797 46.2686C37.3268 46.2686 40.5266 43.0688 40.5266 39.1216C40.5266 35.1744 37.3268 31.9746 33.3797 31.9746C29.4325 31.9746 26.2327 35.1744 26.2327 39.1216C26.2327 43.0688 29.4325 46.2686 33.3797 46.2686Z" fill="#02224F" stroke="#F7FAFC" stroke-width="0.671806" stroke-miterlimit="10"/>
</g>
<defs>
<clipPath id="clip0_928_2013">
<rect width="64" height="64" fill="white"/>
</clipPath>
</defs>
</svg>
