<svg width="120" height="120" viewBox="0 0 120 120" fill="none" xmlns="http://www.w3.org/2000/svg">
<path d="M60 120C93.1371 120 120 93.1371 120 60C120 26.8629 93.1371 0 60 0C26.8629 0 0 26.8629 0 60C0 93.1371 26.8629 120 60 120Z" fill="#257DF9" fill-opacity="0.4"/>
<path d="M28.1214 78.5428C29.1595 69.7333 26.1119 58.9047 30.2643 48.5809C36.1595 33.9238 47.3214 26.2 62.8167 25.4095C75.4167 24.7714 88.0643 25.3714 100.693 25.1904C104.912 25.1238 107.541 26.9619 109.836 30.2666C124.16 50.8952 121.56 82.0476 103.836 101.019C85.5024 120.638 55.7786 125.619 33.8738 112.971C29.8452 110.648 27.8357 107.962 28.0452 103.143C28.3786 95.5333 28.131 87.9047 28.131 78.5428H28.1214Z" fill="#257DF9"/>
<path d="M72.5691 87.6648C72.5691 89.2225 72.2623 90.765 71.6662 92.2042C71.0702 93.6433 70.1965 94.951 69.0951 96.0525C67.9937 97.154 66.6861 98.0277 65.2471 98.6239C63.808 99.22 62.2657 99.5268 60.708 99.5268C59.1504 99.5268 57.6081 99.22 56.169 98.6239C54.73 98.0277 53.4224 97.154 52.321 96.0525C51.2196 94.951 50.3459 93.6433 49.7499 92.2042C49.1538 90.765 48.847 89.2225 48.847 87.6648L60.708 87.6648H72.5691Z" fill="white"/>
<path d="M65.1785 87.5404C65.1785 88.1441 65.0628 88.7419 64.838 89.2996C64.6132 89.8574 64.2837 90.3641 63.8683 90.791C63.4529 91.2179 62.9597 91.5565 62.4169 91.7875C61.8742 92.0186 61.2925 92.1375 60.705 92.1375C60.1175 92.1375 59.5358 92.0186 58.993 91.7875C58.4503 91.5565 57.9571 91.2179 57.5417 90.791C57.1263 90.3641 56.7968 89.8574 56.572 89.2996C56.3472 88.7419 56.2314 88.1441 56.2314 87.5404L60.705 87.5404H65.1785Z" fill="black"/>
<ellipse cx="83.7314" cy="89.4291" rx="10.1783" ry="10.0971" fill="white"/>
<ellipse cx="84.6357" cy="87.5404" rx="4.51459" ry="4.59705" fill="black"/>
</svg>
